# Blender v2.82 (sub 7) OBJ File: ''
# www.blender.org
mtllib plana2.mtl
o Plane_Plane.001
v 2.950603 -1.590524 -3.196781
v 3.900155 -0.884258 -3.120259
v 3.900263 -0.443977 -3.900263
v 3.013113 -0.900021 -3.948612
v -3.939810 -0.272449 -3.157244
v -3.385494 -0.300615 -3.368632
v -3.223621 -0.274729 -3.997101
v -3.900738 -0.113254 -3.900708
v -2.867276 -0.309588 -3.613824
v -2.605442 -0.413425 -4.148685
v -2.205363 -0.523638 -3.724454
v -1.899866 -0.677804 -4.218428
v -1.307296 -1.047929 -3.613888
v -1.045336 -1.104744 -4.148685
v -0.469765 -1.312220 -3.477859
v -0.219851 -1.398433 -4.054200
v 0.215910 -1.193417 -3.418388
v 0.423254 -1.231744 -4.064866
v 0.922460 -1.056781 -3.408078
v 1.085642 -1.053413 -4.114460
v 1.865694 -1.293826 -3.334409
v 1.990626 -1.255123 -4.058061
v 2.545980 -0.509199 3.970833
v 3.303746 -0.302655 3.963191
v 3.432642 -0.501871 3.227333
v 2.684304 -0.814613 3.238207
v 3.535559 -0.727053 2.482567
v 2.796058 -1.075401 2.496471
v 3.576110 -1.005562 1.716418
v 2.842024 -1.310801 1.732179
v 3.535559 -1.192202 0.922462
v 2.796058 -1.566104 0.936366
v 3.432642 -1.461965 0.107122
v 2.684304 -1.764605 0.117996
v 3.296019 -1.601275 -0.720596
v 2.428746 -1.845790 -0.761308
v 3.077062 -1.649065 -1.586529
v 2.042244 -1.600995 -1.700205
v 2.952353 -1.648784 -2.416128
v 1.865694 -1.412775 -2.554357
v 1.743640 -0.764725 3.963191
v 1.872537 -1.037686 3.227333
v 1.975454 -1.335252 2.482567
v 2.015911 -1.643950 1.716431
v 1.975454 -1.832959 0.922462
v 1.872412 -1.989857 0.107068
v 1.549136 -1.962826 -0.802231
v 1.105483 -1.541886 -1.768734
v 0.916870 -1.252545 -2.633261
v 0.905753 -1.032370 3.943361
v 0.980432 -1.292440 3.202540
v 0.974988 -1.534670 2.460306
v 0.963352 -1.816310 1.695889
v 0.977875 -2.056284 0.901190
v 0.980424 -2.155094 0.081737
v 0.705751 -2.109058 -0.854825
v 0.289140 -1.720981 -1.851266
v 0.147952 -1.371279 -2.701974
v 0.027962 -1.135286 3.923476
v -0.080675 -1.355442 3.188589
v -0.232421 -1.595523 2.449032
v -0.299878 -1.783478 1.685521
v -0.232532 -2.065574 0.885934
v -0.231426 -2.153713 -0.060661
v -0.289580 -2.101140 -1.029951
v -0.486366 -1.762170 -1.963616
v -0.567190 -1.466806 -2.789039
v -0.876870 -1.335828 3.920378
v -1.123988 -1.300618 3.190850
v -1.378988 -1.274618 2.458903
v -1.489456 -1.390899 1.699432
v -1.403512 -1.679948 0.875394
v -1.405362 -1.766055 -0.187776
v -1.425610 -1.640557 -1.272112
v -1.425282 -1.444877 -2.164322
v -1.425454 -1.180521 -2.944483
v -1.696448 -1.454954 3.926453
v -1.986749 -1.403329 3.202163
v -2.275230 -1.185598 2.477523
v -2.406028 -1.124236 1.722595
v -2.282601 -1.332659 0.910516
v -2.246810 -1.408851 -0.161579
v -2.324659 -1.183965 -1.342144
v -2.350342 -0.879463 -2.300016
v -2.350257 -0.597144 -3.080085
v -2.439814 -1.554016 3.919405
v -2.692644 -1.472767 3.187918
v -2.946007 -1.316727 2.456533
v -3.055283 -1.193848 1.697471
v -2.946007 -1.329390 0.896428
v -2.855799 -1.351327 -0.085077
v -2.930936 -1.062576 -1.220816
v -2.985444 -0.729758 -2.164375
v -2.985415 -0.430078 -2.944401
v -3.145682 -1.623927 3.905156
v -3.299739 -1.646993 3.154696
v -3.472697 -1.518421 2.407866
v -3.546854 -1.455907 1.642058
v -3.472697 -1.451511 0.847760
v -3.360574 -1.437253 -0.022483
v -3.401093 -1.184715 -1.014336
v -3.460006 -0.791167 -1.878303
v -3.459971 -0.485184 -2.658323
v -3.900263 -1.521307 3.900263
v -3.925735 -1.713570 3.125103
v -3.999919 -1.697463 2.359300
v -4.036606 -1.636291 1.586295
v -3.999919 -1.600685 0.799195
v -3.925815 -1.464167 0.004818
v -3.939827 -1.158766 -0.817102
v -3.967723 -0.823019 -1.623277
v -3.967702 -0.515114 -2.403310
v 4.025963 -0.175262 3.943361
v 4.130008 -0.335751 3.198982
v 4.212695 -0.435110 2.447280
v 4.244410 -0.682010 1.678102
v 4.212695 -0.909349 0.887175
v 4.130008 -1.106494 0.078772
v 4.025963 -1.305632 -0.736954
v 3.936695 -1.446823 -1.547614
v 3.900155 -1.545454 -2.340207
vt 0.900000 0.900000
vt 1.000000 0.900000
vt 1.000000 1.000000
vt 0.900000 1.000000
vt 0.000000 0.900000
vt 0.100000 0.900000
vt 0.100000 1.000000
vt 0.000000 1.000000
vt 0.200000 0.900000
vt 0.200000 1.000000
vt 0.300000 0.900000
vt 0.300000 1.000000
vt 0.400000 0.900000
vt 0.400000 1.000000
vt 0.500000 0.900000
vt 0.500000 1.000000
vt 0.600000 0.900000
vt 0.600000 1.000000
vt 0.700000 0.900000
vt 0.700000 1.000000
vt 0.800000 0.900000
vt 0.800000 1.000000
vt 0.800000 0.000000
vt 0.900000 0.000000
vt 0.900000 0.100000
vt 0.800000 0.100000
vt 0.900000 0.200000
vt 0.800000 0.200000
vt 0.900000 0.300000
vt 0.800000 0.300000
vt 0.900000 0.400000
vt 0.800000 0.400000
vt 0.900000 0.500000
vt 0.800000 0.500000
vt 0.900000 0.600000
vt 0.800000 0.600000
vt 0.900000 0.700000
vt 0.800000 0.700000
vt 0.900000 0.800000
vt 0.800000 0.800000
vt 0.700000 0.000000
vt 0.700000 0.100000
vt 0.700000 0.200000
vt 0.700000 0.300000
vt 0.700000 0.400000
vt 0.700000 0.500000
vt 0.700000 0.600000
vt 0.700000 0.700000
vt 0.700000 0.800000
vt 0.600000 0.000000
vt 0.600000 0.100000
vt 0.600000 0.200000
vt 0.600000 0.300000
vt 0.600000 0.400000
vt 0.600000 0.500000
vt 0.600000 0.600000
vt 0.600000 0.700000
vt 0.600000 0.800000
vt 0.500000 0.000000
vt 0.500000 0.100000
vt 0.500000 0.200000
vt 0.500000 0.300000
vt 0.500000 0.400000
vt 0.500000 0.500000
vt 0.500000 0.600000
vt 0.500000 0.700000
vt 0.500000 0.800000
vt 0.400000 0.000000
vt 0.400000 0.100000
vt 0.400000 0.200000
vt 0.400000 0.300000
vt 0.400000 0.400000
vt 0.400000 0.500000
vt 0.400000 0.600000
vt 0.400000 0.700000
vt 0.400000 0.800000
vt 0.300000 0.000000
vt 0.300000 0.100000
vt 0.300000 0.200000
vt 0.300000 0.300000
vt 0.300000 0.400000
vt 0.300000 0.500000
vt 0.300000 0.600000
vt 0.300000 0.700000
vt 0.300000 0.800000
vt 0.200000 0.000000
vt 0.200000 0.100000
vt 0.200000 0.200000
vt 0.200000 0.300000
vt 0.200000 0.400000
vt 0.200000 0.500000
vt 0.200000 0.600000
vt 0.200000 0.700000
vt 0.200000 0.800000
vt 0.100000 0.000000
vt 0.100000 0.100000
vt 0.100000 0.200000
vt 0.100000 0.300000
vt 0.100000 0.400000
vt 0.100000 0.500000
vt 0.100000 0.600000
vt 0.100000 0.700000
vt 0.100000 0.800000
vt 0.000000 0.000000
vt 0.000000 0.100000
vt 0.000000 0.200000
vt 0.000000 0.300000
vt 0.000000 0.400000
vt 0.000000 0.500000
vt 0.000000 0.600000
vt 0.000000 0.700000
vt 0.000000 0.800000
vt 1.000000 0.000000
vt 1.000000 0.100000
vt 1.000000 0.200000
vt 1.000000 0.300000
vt 1.000000 0.400000
vt 1.000000 0.500000
vt 1.000000 0.600000
vt 1.000000 0.700000
vt 1.000000 0.800000
vn 0.0108 0.9978 0.0652
vn 0.0121 0.9947 0.1024
vn 0.0021 0.9984 0.0564
vn -0.0420 0.9981 0.0461
vn 0.1708 0.9748 0.1433
vn 0.1715 0.9747 0.1430
vn 0.1717 0.9748 0.1422
vn 0.0918 0.9942 -0.0567
vn 0.0922 0.9941 -0.0577
vn 0.0924 0.9941 -0.0573
vn 0.0918 0.9941 -0.0572
vn 0.3136 0.9441 -0.1019
vn 0.3140 0.9440 -0.1016
vn 0.3125 0.9444 -0.1017
vn 0.3126 0.9445 -0.1013
vn 0.4837 0.8740 0.0462
vn 0.4815 0.8752 0.0460
vn 0.4818 0.8751 0.0452
vn 0.4820 0.8749 0.0463
vn 0.2852 0.9584 0.0125
vn 0.2860 0.9581 0.0140
vn 0.2852 0.9584 0.0126
vn 0.2865 0.9580 0.0125
vn -0.1980 0.9667 -0.1619
vn -0.1984 0.9666 -0.1621
vn -0.1994 0.9665 -0.1616
vn -0.1991 0.9665 -0.1620
vn -0.2279 0.9680 -0.1052
vn -0.2282 0.9680 -0.1049
vn -0.2293 0.9677 -0.1049
vn -0.2290 0.9678 -0.1047
vn 0.2370 0.9695 0.0620
vn 0.2368 0.9696 0.0617
vn 0.2371 0.9695 0.0621
vn 0.2373 0.9694 0.0623
vn 0.2411 0.9649 0.1042
vn 0.2908 0.9512 0.1034
vn 0.2364 0.9652 0.1115
vn 0.2382 0.9695 0.0580
vn -0.2836 0.8988 -0.3343
vn -0.2833 0.8986 -0.3351
vn -0.2826 0.8987 -0.3353
vn -0.2832 0.8986 -0.3351
vn -0.3215 0.8869 -0.3316
vn -0.3221 0.8851 -0.3358
vn -0.3208 0.8857 -0.3355
vn -0.3230 0.8866 -0.3312
vn -0.3784 0.8737 -0.3058
vn -0.3783 0.8733 -0.3068
vn -0.3777 0.8735 -0.3070
vn -0.3786 0.8734 -0.3064
vn -0.3991 0.8858 -0.2368
vn -0.3992 0.8856 -0.2373
vn -0.3989 0.8860 -0.2366
vn -0.3982 0.8863 -0.2363
vn -0.3918 0.9058 -0.1613
vn -0.3909 0.9059 -0.1626
vn -0.3878 0.9071 -0.1637
vn -0.3894 0.9065 -0.1635
vn -0.2998 0.9508 -0.0775
vn -0.3006 0.9505 -0.0781
vn -0.3008 0.9505 -0.0781
vn -0.3005 0.9506 -0.0781
vn -0.0829 0.9912 0.1033
vn -0.0816 0.9916 0.1004
vn -0.0853 0.9911 0.1018
vn -0.0840 0.9916 0.0987
vn 0.1327 0.9857 0.1038
vn 0.1335 0.9854 0.1056
vn 0.1319 0.9858 0.1043
vn 0.1332 0.9854 0.1057
vn 0.2470 0.9630 0.1075
vn 0.2480 0.9628 0.1072
vn 0.2470 0.9631 0.1074
vn 0.2480 0.9628 0.1076
vn -0.2782 0.8841 -0.3755
vn -0.2779 0.8836 -0.3769
vn -0.2780 0.8842 -0.3754
vn -0.2766 0.8845 -0.3756
vn -0.3151 0.8706 -0.3780
vn -0.3124 0.8697 -0.3820
vn -0.3135 0.8687 -0.3836
vn -0.3134 0.8709 -0.3785
vn -0.3203 0.8890 -0.3273
vn -0.3206 0.8888 -0.3275
vn -0.3204 0.8889 -0.3274
vn -0.3201 0.8892 -0.3270
vn -0.3341 0.9090 -0.2493
vn -0.3341 0.9090 -0.2491
vn -0.3338 0.9090 -0.2495
vn -0.3338 0.9091 -0.2493
vn -0.3378 0.9273 -0.1613
vn -0.3396 0.9265 -0.1622
vn -0.3378 0.9272 -0.1620
vn -0.3395 0.9267 -0.1610
vn -0.2330 0.9694 0.0776
vn -0.2342 0.9688 0.0806
vn -0.2321 0.9695 0.0783
vn -0.2351 0.9687 0.0798
vn -0.0426 0.9483 0.3145
vn -0.0418 0.9493 0.3114
vn -0.0431 0.9483 0.3145
vn -0.0424 0.9493 0.3114
vn 0.1109 0.9546 0.2766
vn 0.1116 0.9539 0.2784
vn 0.1099 0.9545 0.2772
vn 0.1110 0.9539 0.2788
vn 0.2087 0.9589 0.1922
vn 0.2100 0.9587 0.1917
vn 0.2087 0.9589 0.1921
vn 0.2100 0.9586 0.1924
vn -0.2223 0.8924 -0.3926
vn -0.2259 0.8914 -0.3929
vn -0.2225 0.8923 -0.3928
vn -0.2230 0.8935 -0.3897
vn -0.2059 0.9077 -0.3655
vn -0.2077 0.9077 -0.3647
vn -0.2059 0.9078 -0.3655
vn -0.2055 0.9082 -0.3645
vn -0.1812 0.9319 -0.3142
vn -0.1808 0.9316 -0.3152
vn -0.1785 0.9327 -0.3133
vn -0.1791 0.9322 -0.3145
vn -0.1645 0.9518 -0.2589
vn -0.1636 0.9519 -0.2589
vn -0.1644 0.9519 -0.2585
vn -0.1636 0.9520 -0.2588
vn -0.1544 0.9725 -0.1741
vn -0.1513 0.9726 -0.1765
vn -0.1543 0.9726 -0.1739
vn -0.1511 0.9726 -0.1765
vn -0.1636 0.9768 0.1380
vn -0.1622 0.9766 0.1415
vn -0.1645 0.9766 0.1383
vn -0.1637 0.9762 0.1422
vn -0.1870 0.8840 0.4285
vn -0.1860 0.8847 0.4275
vn -0.1863 0.8838 0.4291
vn -0.1848 0.8844 0.4286
vn -0.1937 0.9004 0.3895
vn -0.1929 0.9002 0.3905
vn -0.1941 0.9003 0.3897
vn -0.1935 0.8998 0.3909
vn -0.1898 0.9560 0.2236
vn -0.1903 0.9559 0.2236
vn -0.1900 0.9559 0.2240
vn -0.1902 0.9560 0.2235
vn -0.1154 0.9384 -0.3257
vn -0.1139 0.9391 -0.3243
vn -0.1157 0.9386 -0.3249
vn -0.1139 0.9389 -0.3247
vn -0.0267 0.9554 -0.2942
vn -0.0270 0.9552 -0.2946
vn -0.0266 0.9553 -0.2945
vn -0.0272 0.9553 -0.2943
vn 0.0100 0.9487 -0.3159
vn 0.0083 0.9486 -0.3163
vn 0.0086 0.9484 -0.3168
vn 0.0087 0.9487 -0.3160
vn 0.0034 0.9666 -0.2561
vn 0.0024 0.9667 -0.2558
vn 0.0032 0.9666 -0.2561
vn 0.0054 0.9668 -0.2554
vn 0.0067 0.9893 -0.1459
vn 0.0084 0.9889 -0.1484
vn 0.0074 0.9893 -0.1458
vn 0.0071 0.9889 -0.1484
vn -0.0159 0.9965 0.0824
vn -0.0184 0.9960 0.0869
vn -0.0173 0.9965 0.0816
vn -0.0184 0.9960 0.0874
vn -0.1139 0.9245 0.3638
vn -0.1205 0.9234 0.3645
vn -0.1130 0.9257 0.3610
vn -0.1204 0.9251 0.3600
vn -0.1668 0.9062 0.3885
vn -0.1691 0.9051 0.3902
vn -0.1667 0.9061 0.3888
vn -0.1695 0.9052 0.3896
vn -0.1792 0.9640 0.1963
vn -0.1796 0.9639 0.1965
vn -0.1798 0.9638 0.1969
vn -0.0522 0.9881 -0.1445
vn -0.0527 0.9877 -0.1472
vn -0.0546 0.9878 -0.1461
vn -0.0535 0.9875 -0.1479
vn 0.1392 0.9809 -0.1360
vn 0.1369 0.9819 -0.1306
vn 0.1390 0.9810 -0.1356
vn 0.1361 0.9820 -0.1310
vn 0.2668 0.9269 -0.2639
vn 0.2666 0.9263 -0.2663
vn 0.2639 0.9280 -0.2629
vn 0.2633 0.9276 -0.2651
vn 0.2862 0.9232 -0.2564
vn 0.2867 0.9230 -0.2567
vn 0.2857 0.9233 -0.2566
vn 0.2854 0.9232 -0.2573
vn 0.2955 0.9504 -0.0969
vn 0.2947 0.9506 -0.0981
vn 0.2957 0.9503 -0.0970
vn 0.2944 0.9507 -0.0977
vn 0.3183 0.9452 0.0722
vn 0.3167 0.9458 0.0718
vn 0.3183 0.9453 0.0717
vn 0.3168 0.9457 0.0727
vn 0.2989 0.9244 0.2369
vn 0.2993 0.9244 0.2365
vn 0.2995 0.9243 0.2366
vn 0.2577 0.9093 0.3266
vn 0.2589 0.9087 0.3275
vn 0.2589 0.9093 0.3258
vn 0.2591 0.9087 0.3274
vn 0.2591 0.9393 0.2249
vn 0.2591 0.9393 0.2248
vn 0.2595 0.9392 0.2248
vn 0.2594 0.9393 0.2247
vn -0.1278 0.9899 0.0620
vn -0.1277 0.9899 0.0610
vn -0.1280 0.9898 0.0620
vn -0.1280 0.9899 0.0610
vn 0.0069 0.9861 0.1660
vn 0.0081 0.9861 0.1661
vn 0.0069 0.9861 0.1663
vn 0.1993 0.9776 -0.0676
vn 0.2006 0.9773 -0.0675
vn 0.1994 0.9776 -0.0674
vn 0.2005 0.9773 -0.0680
vn 0.3152 0.9172 -0.2436
vn 0.3159 0.9170 -0.2434
vn 0.3153 0.9172 -0.2434
vn 0.3156 0.9170 -0.2440
vn 0.3847 0.9215 -0.0526
vn 0.3851 0.9214 -0.0519
vn 0.3846 0.9216 -0.0526
vn 0.3853 0.9213 -0.0520
vn 0.4564 0.8801 0.1311
vn 0.4582 0.8793 0.1303
vn 0.4567 0.8801 0.1297
vn 0.4579 0.8793 0.1311
vn 0.4881 0.8411 0.2331
vn 0.4889 0.8411 0.2312
vn 0.4886 0.8414 0.2310
vn 0.4883 0.8409 0.2333
vn 0.4860 0.8253 0.2875
vn 0.4860 0.8256 0.2866
vn 0.4859 0.8256 0.2868
vn 0.4862 0.8251 0.2878
vn 0.4962 0.8414 0.2140
vn 0.4955 0.8420 0.2136
vn 0.4961 0.8415 0.2140
vn 0.4964 0.8411 0.2146
vn -0.1085 0.9900 0.0904
vn -0.1090 0.9900 0.0894
vn -0.1079 0.9900 0.0905
vn -0.1073 0.9902 0.0897
vn -0.1464 0.9427 0.2998
vn -0.1465 0.9427 0.2998
vn -0.1529 0.9779 0.1426
vn -0.1529 0.9779 0.1425
vn -0.0421 0.9749 -0.2187
vn -0.0421 0.9748 -0.2191
vn -0.0422 0.9749 -0.2188
vn 0.0387 0.9985 -0.0389
vn 0.0384 0.9985 -0.0386
vn 0.0383 0.9985 -0.0387
vn 0.1157 0.9684 0.2208
vn 0.1142 0.9687 0.2206
vn 0.1151 0.9690 0.2186
vn 0.1143 0.9686 0.2207
vn 0.2162 0.9257 0.3103
vn 0.2145 0.9266 0.3087
vn 0.2157 0.9266 0.3080
vn 0.2150 0.9259 0.3107
vn 0.2826 0.8999 0.3320
vn 0.2827 0.9002 0.3314
vn 0.2829 0.9002 0.3311
vn 0.2825 0.9001 0.3318
vn 0.2982 0.9372 0.1808
vn 0.2986 0.9372 0.1803
vn 0.2991 0.9371 0.1801
vn -0.1927 0.9806 0.0362
vn -0.1941 0.9803 0.0355
vn -0.1897 0.9812 0.0359
vn -0.1893 0.9813 0.0349
vn -0.3265 0.9047 0.2735
vn -0.3268 0.9046 0.2736
vn -0.3266 0.9048 0.2734
vn -0.3267 0.9046 0.2737
vn -0.4263 0.8902 0.1608
vn -0.3430 0.9314 -0.1223
vn -0.3433 0.9312 -0.1227
vn -0.3432 0.9313 -0.1222
vn -0.2101 0.9773 -0.0285
vn -0.2109 0.9771 -0.0280
vn -0.2103 0.9773 -0.0275
vn -0.2108 0.9771 -0.0285
vn -0.0947 0.9596 0.2648
vn -0.0937 0.9593 0.2665
vn -0.0951 0.9592 0.2661
vn -0.0932 0.9597 0.2652
vn 0.0362 0.9282 0.3703
vn 0.0362 0.9276 0.3717
vn 0.0362 0.9274 0.3724
vn 0.0361 0.9277 0.3716
vn 0.0672 0.9310 0.3587
vn 0.0669 0.9309 0.3592
vn 0.0671 0.9308 0.3592
vn 0.0670 0.9310 0.3588
vn 0.0375 0.9769 0.2102
vn 0.0372 0.9769 0.2105
vn 0.0376 0.9770 0.2100
vn 0.0375 0.9770 0.2098
vn 0.0314 0.9889 -0.1451
vn 0.0314 0.9889 -0.1452
vn 0.0314 0.9889 -0.1450
vn 0.0316 0.9889 -0.1451
vn -0.1493 0.9807 0.1264
vn -0.1479 0.9813 0.1229
vn -0.1493 0.9810 0.1237
vn -0.1477 0.9806 0.1288
vn -0.2922 0.9520 0.0906
vn -0.2925 0.9520 0.0896
vn -0.2924 0.9521 0.0898
vn -0.2923 0.9520 0.0909
vn -0.2607 0.9654 0.0067
vn -0.2594 0.9657 0.0082
vn -0.2608 0.9653 0.0080
vn -0.2593 0.9658 0.0069
vn -0.0959 0.9932 0.0664
vn -0.0926 0.9932 0.0707
vn -0.0956 0.9929 0.0711
vn -0.0928 0.9934 0.0675
vn 0.0462 0.9536 0.2974
vn 0.0461 0.9536 0.2974
vn 0.0460 0.9538 0.2969
vn 0.0460 0.9537 0.2973
vn 0.1018 0.9207 0.3767
vn 0.1010 0.9212 0.3757
vn 0.1017 0.9205 0.3773
vn 0.1006 0.9207 0.3770
vn 0.0954 0.9274 0.3618
vn 0.0954 0.9273 0.3619
vn 0.0942 0.9560 0.2778
vn 0.0944 0.9560 0.2778
vn 0.0945 0.9562 0.2770
vn 0.0945 0.9561 0.2774
vn -0.2684 0.9222 -0.2784
vn -0.2668 0.9224 -0.2794
vn -0.2677 0.9218 -0.2805
vn -0.2671 0.9225 -0.2786
vn -0.3516 0.8940 -0.2777
vn -0.3494 0.8947 -0.2782
vn -0.3490 0.8943 -0.2801
vn -0.3496 0.8947 -0.2781
vn -0.4080 0.8773 -0.2528
vn -0.4081 0.8769 -0.2539
vn -0.4045 0.8787 -0.2535
vn -0.4042 0.8785 -0.2546
vn -0.4594 0.8592 -0.2252
vn -0.4564 0.8601 -0.2281
vn -0.4582 0.8589 -0.2287
vn -0.4574 0.8603 -0.2252
vn -0.4513 0.8759 -0.1707
vn -0.4529 0.8748 -0.1720
vn -0.4522 0.8753 -0.1717
vn -0.4506 0.8765 -0.1695
vn -0.4258 0.8906 -0.1599
vn -0.4256 0.8909 -0.1589
vn -0.4243 0.8912 -0.1605
vn -0.4242 0.8914 -0.1595
vn -0.3358 0.9400 -0.0607
vn -0.3344 0.9405 -0.0610
vn -0.3361 0.9400 -0.0587
vn -0.3349 0.9404 -0.0595
vn -0.2086 0.9777 -0.0232
vn -0.2075 0.9780 -0.0223
vn -0.2077 0.9780 -0.0213
vn -0.2082 0.9778 -0.0235
vn -0.1013 0.9948 -0.0072
vn 0.0043 0.9996 0.0293
vn -0.0529 0.9979 0.0383
vn -0.0476 0.9978 -0.0459
usemtl None
s 1
f 1/1/1 2/2/2 3/3/3 4/4/4
f 5/5/5 6/6/6 7/7/7 8/8/6
f 6/6/8 9/9/9 10/10/10 7/7/11
f 9/9/12 11/11/13 12/12/14 10/10/15
f 11/11/16 13/13/17 14/14/18 12/12/19
f 13/13/20 15/15/21 16/16/22 14/14/23
f 15/15/24 17/17/25 18/18/26 16/16/27
f 17/17/28 19/19/29 20/20/30 18/18/31
f 19/19/32 21/21/33 22/22/34 20/20/35
f 21/21/36 1/1/37 4/4/38 22/22/39
f 23/23/40 24/24/41 25/25/42 26/26/43
f 26/26/44 25/25/45 27/27/46 28/28/47
f 28/28/48 27/27/49 29/29/50 30/30/51
f 30/30/52 29/29/53 31/31/54 32/32/55
f 32/32/56 31/31/57 33/33/58 34/34/59
f 34/34/60 33/33/61 35/35/62 36/36/63
f 36/36/64 35/35/65 37/37/66 38/38/67
f 38/38/68 37/37/69 39/39/70 40/40/71
f 40/40/72 39/39/73 1/1/74 21/21/75
f 41/41/76 23/23/77 26/26/78 42/42/79
f 42/42/80 26/26/81 28/28/82 43/43/83
f 43/43/84 28/28/85 30/30/86 44/44/87
f 44/44/88 30/30/89 32/32/90 45/45/91
f 45/45/92 32/32/93 34/34/94 46/46/95
f 46/46/96 34/34/97 36/36/98 47/47/99
f 47/47/100 36/36/101 38/38/102 48/48/103
f 48/48/104 38/38/105 40/40/106 49/49/107
f 49/49/108 40/40/109 21/21/110 19/19/111
f 50/50/112 41/41/113 42/42/114 51/51/115
f 51/51/116 42/42/117 43/43/118 52/52/119
f 52/52/120 43/43/121 44/44/122 53/53/123
f 53/53/124 44/44/125 45/45/126 54/54/127
f 54/54/128 45/45/129 46/46/130 55/55/131
f 55/55/132 46/46/133 47/47/134 56/56/135
f 56/56/136 47/47/137 48/48/138 57/57/139
f 57/57/140 48/48/141 49/49/142 58/58/143
f 58/58/144 49/49/145 19/19/146 17/17/147
f 59/59/148 50/50/149 51/51/150 60/60/151
f 60/60/152 51/51/153 52/52/154 61/61/155
f 61/61/156 52/52/157 53/53/158 62/62/159
f 62/62/160 53/53/161 54/54/162 63/63/163
f 63/63/164 54/54/165 55/55/166 64/64/167
f 64/64/168 55/55/169 56/56/170 65/65/171
f 65/65/172 56/56/173 57/57/174 66/66/175
f 66/66/176 57/57/177 58/58/178 67/67/179
f 67/67/180 58/58/181 17/17/182 15/15/181
f 68/68/183 59/59/184 60/60/185 69/69/186
f 69/69/187 60/60/188 61/61/189 70/70/190
f 70/70/191 61/61/192 62/62/193 71/71/194
f 71/71/195 62/62/196 63/63/197 72/72/198
f 72/72/199 63/63/200 64/64/201 73/73/202
f 73/73/203 64/64/204 65/65/205 74/74/206
f 74/74/207 65/65/208 66/66/207 75/75/209
f 75/75/210 66/66/211 67/67/212 76/76/213
f 76/76/214 67/67/215 15/15/216 13/13/217
f 77/77/218 68/68/219 69/69/220 78/78/221
f 78/78/222 69/69/223 70/70/224 79/79/223
f 79/79/225 70/70/226 71/71/227 80/80/228
f 80/80/229 71/71/230 72/72/231 81/81/232
f 81/81/233 72/72/234 73/73/235 82/82/236
f 82/82/237 73/73/238 74/74/239 83/83/240
f 83/83/241 74/74/242 75/75/243 84/84/244
f 84/84/245 75/75/246 76/76/247 85/85/248
f 85/85/249 76/76/250 13/13/251 11/11/252
f 86/86/253 77/77/254 78/78/255 87/87/256
f 87/87/257 78/78/258 79/79/257 88/88/257
f 88/88/259 79/79/260 80/80/259 89/89/260
f 89/89/261 80/80/262 81/81/263 90/90/262
f 90/90/264 81/81/265 82/82/264 91/91/266
f 91/91/267 82/82/268 83/83/269 92/92/270
f 92/92/271 83/83/272 84/84/273 93/93/274
f 93/93/275 84/84/276 85/85/277 94/94/278
f 94/94/279 85/85/280 11/11/281 9/9/280
f 95/95/282 86/86/283 87/87/284 96/96/285
f 96/96/286 87/87/287 88/88/288 97/97/289
f 97/97/290 88/88/290 89/89/290 98/98/290
f 98/98/291 89/89/292 90/90/293 99/99/292
f 99/99/294 90/90/295 91/91/296 100/100/297
f 100/100/298 91/91/299 92/92/300 101/101/301
f 101/101/302 92/92/303 93/93/304 102/102/305
f 102/102/306 93/93/307 94/94/308 103/103/309
f 103/103/310 94/94/311 9/9/312 6/6/313
f 104/104/314 95/95/315 96/96/316 105/105/317
f 105/105/318 96/96/319 97/97/320 106/106/321
f 106/106/322 97/97/323 98/98/324 107/107/325
f 107/107/326 98/98/327 99/99/328 108/108/329
f 108/108/330 99/99/331 100/100/332 109/109/333
f 109/109/334 100/100/335 101/101/336 110/110/337
f 110/110/338 101/101/339 102/102/340 111/111/341
f 111/111/342 102/102/343 103/103/343 112/112/342
f 112/112/344 103/103/345 6/6/346 5/5/347
f 24/24/348 113/113/349 114/114/350 25/25/351
f 25/25/352 114/114/353 115/115/354 27/27/355
f 27/27/356 115/115/357 116/116/358 29/29/359
f 29/29/360 116/116/361 117/117/362 31/31/363
f 31/31/364 117/117/365 118/118/366 33/33/367
f 33/33/368 118/118/369 119/119/370 35/35/371
f 35/35/372 119/119/373 120/120/374 37/37/375
f 37/37/376 120/120/377 121/121/378 39/39/379
f 39/39/380 121/121/381 2/2/382 1/1/383
