# Blender v2.82 (sub 7) OBJ File: 'alpha_playground.blend'
# www.blender.org
mtllib plana3.mtl
o Plane_Plane.001
v 2.950603 -2.080558 -3.196781
v 3.900155 -1.879088 -3.120259
v 3.900263 -1.627899 -3.900263
v 3.013113 -1.850316 -3.948612
v -3.939810 -0.839671 -3.157244
v -3.385494 -0.926937 -3.368632
v -3.223621 -0.825611 -3.997101
v -3.900738 -0.588560 -3.900708
v -2.867276 -0.944320 -3.613824
v -2.605442 -0.975216 -4.148685
v -2.205363 -1.170599 -3.724454
v -1.899866 -1.239080 -4.218428
v -1.307296 -1.722993 -3.613888
v -1.045336 -1.683969 -4.148685
v -0.469765 -1.986841 -3.477859
v -0.219851 -1.939922 -4.054200
v 0.215910 -1.837882 -3.418388
v 0.423254 -1.767238 -4.064866
v 0.922460 -1.685044 -3.408078
v 1.085642 -1.595834 -4.114461
v 1.865694 -1.901235 -3.334409
v 1.990626 -1.738590 -4.058061
v 2.545980 -1.138985 3.970833
v 3.303746 -0.766059 3.963191
v 3.432642 -1.173615 3.227333
v 2.684304 -1.588424 3.238207
v 3.535559 -1.561803 2.482567
v 2.796058 -1.998859 2.496471
v 3.576110 -1.900593 1.716418
v 2.842024 -2.346789 1.732179
v 3.535559 -2.177855 0.922462
v 2.796058 -2.622799 0.936366
v 3.432642 -2.385554 0.107122
v 2.684304 -2.819734 0.117996
v 3.296019 -2.502087 -0.720596
v 2.428746 -2.848194 -0.761308
v 3.077062 -2.437403 -1.586529
v 2.042244 -2.554501 -1.700205
v 2.952353 -2.276730 -2.416128
v 1.865694 -2.180873 -2.554357
v 1.743640 -1.499686 3.963191
v 1.872537 -1.977542 3.227333
v 1.975454 -2.397882 2.482567
v 2.015911 -2.740146 1.716431
v 1.975454 -2.998543 0.922462
v 1.872412 -3.164853 0.107068
v 1.549136 -3.088630 -0.802231
v 1.105483 -2.589777 -1.768734
v 0.916870 -2.047662 -2.633261
v 0.905753 -1.815349 3.943361
v 0.980432 -2.296717 3.202540
v 0.974988 -2.687103 2.460306
v 0.963352 -2.999636 1.695889
v 0.977875 -3.232735 0.901190
v 0.980424 -3.372462 0.081737
v 0.705751 -3.250856 -0.854825
v 0.289140 -2.683961 -1.851266
v 0.147952 -2.152415 -2.701974
v 0.027962 -2.035330 3.923476
v -0.080675 -2.420465 3.188589
v -0.232421 -2.720395 2.449032
v -0.299878 -2.972304 1.685521
v -0.232532 -3.188242 0.885934
v -0.231426 -3.272736 -0.060661
v -0.289580 -3.167366 -1.029951
v -0.486366 -2.729345 -1.963616
v -0.567190 -2.264421 -2.789039
v -0.876870 -2.113324 3.920378
v -1.123988 -2.335635 3.190850
v -1.378988 -2.462424 2.458903
v -1.489456 -2.611047 1.699432
v -1.403512 -2.838678 0.875394
v -1.405362 -2.861861 -0.187776
v -1.425610 -2.665856 -1.272112
v -1.425282 -2.353651 -2.164322
v -1.425454 -1.971330 -2.944483
v -1.696448 -2.130028 3.926453
v -1.986749 -2.208270 3.202163
v -2.275230 -2.171990 2.477523
v -2.406028 -2.208763 1.722595
v -2.282601 -2.476694 0.910516
v -2.246810 -2.508888 -0.161579
v -2.324659 -2.173663 -1.342144
v -2.350342 -1.766183 -2.300016
v -2.350257 -1.358728 -3.080085
v -2.439814 -2.114574 3.919405
v -2.692644 -2.133191 3.187918
v -2.946007 -2.037770 2.456533
v -3.055283 -2.034341 1.697471
v -2.946007 -2.253558 0.896428
v -2.855799 -2.323917 -0.085077
v -2.930936 -1.978595 -1.220816
v -2.985444 -1.538396 -2.164375
v -2.985415 -1.148787 -2.944401
v -3.145682 -2.063367 3.905156
v -3.299739 -2.117764 3.154696
v -3.472697 -2.063087 2.407866
v -3.546854 -2.055953 1.642058
v -3.472697 -2.174745 0.847760
v -3.360574 -2.237357 -0.022483
v -3.401093 -1.948748 -1.014336
v -3.460006 -1.538143 -1.878303
v -3.459971 -1.177519 -2.658323
v -3.900263 -1.896750 3.900263
v -3.925735 -2.035313 3.125103
v -3.999919 -2.053567 2.359300
v -4.036606 -2.048569 1.586295
v -3.999919 -2.065056 0.799195
v -3.925815 -2.041744 0.004818
v -3.939827 -1.798022 -0.817102
v -3.967723 -1.463935 -1.623277
v -3.967702 -1.133791 -2.403310
v 4.025963 -0.417728 3.943361
v 4.130008 -0.762938 3.198982
v 4.212695 -1.112711 2.447280
v 4.244410 -1.429599 1.678102
v 4.212695 -1.696606 0.887175
v 4.130008 -1.903859 0.078772
v 4.025963 -2.039459 -0.736954
v 3.936695 -2.082059 -1.547614
v 3.900155 -2.029084 -2.340207
vt 0.900000 0.900000
vt 1.000000 0.900000
vt 1.000000 1.000000
vt 0.900000 1.000000
vt 0.000000 0.900000
vt 0.100000 0.900000
vt 0.100000 1.000000
vt 0.000000 1.000000
vt 0.200000 0.900000
vt 0.200000 1.000000
vt 0.300000 0.900000
vt 0.300000 1.000000
vt 0.400000 0.900000
vt 0.400000 1.000000
vt 0.500000 0.900000
vt 0.500000 1.000000
vt 0.600000 0.900000
vt 0.600000 1.000000
vt 0.700000 0.900000
vt 0.700000 1.000000
vt 0.800000 0.900000
vt 0.800000 1.000000
vt 0.800000 0.000000
vt 0.900000 0.000000
vt 0.900000 0.100000
vt 0.800000 0.100000
vt 0.900000 0.200000
vt 0.800000 0.200000
vt 0.900000 0.300000
vt 0.800000 0.300000
vt 0.900000 0.400000
vt 0.800000 0.400000
vt 0.900000 0.500000
vt 0.800000 0.500000
vt 0.900000 0.600000
vt 0.800000 0.600000
vt 0.900000 0.700000
vt 0.800000 0.700000
vt 0.900000 0.800000
vt 0.800000 0.800000
vt 0.700000 0.000000
vt 0.700000 0.100000
vt 0.700000 0.200000
vt 0.700000 0.300000
vt 0.700000 0.400000
vt 0.700000 0.500000
vt 0.700000 0.600000
vt 0.700000 0.700000
vt 0.700000 0.800000
vt 0.600000 0.000000
vt 0.600000 0.100000
vt 0.600000 0.200000
vt 0.600000 0.300000
vt 0.600000 0.400000
vt 0.600000 0.500000
vt 0.600000 0.600000
vt 0.600000 0.700000
vt 0.600000 0.800000
vt 0.500000 0.000000
vt 0.500000 0.100000
vt 0.500000 0.200000
vt 0.500000 0.300000
vt 0.500000 0.400000
vt 0.500000 0.500000
vt 0.500000 0.600000
vt 0.500000 0.700000
vt 0.500000 0.800000
vt 0.400000 0.000000
vt 0.400000 0.100000
vt 0.400000 0.200000
vt 0.400000 0.300000
vt 0.400000 0.400000
vt 0.400000 0.500000
vt 0.400000 0.600000
vt 0.400000 0.700000
vt 0.400000 0.800000
vt 0.300000 0.000000
vt 0.300000 0.100000
vt 0.300000 0.200000
vt 0.300000 0.300000
vt 0.300000 0.400000
vt 0.300000 0.500000
vt 0.300000 0.600000
vt 0.300000 0.700000
vt 0.300000 0.800000
vt 0.200000 0.000000
vt 0.200000 0.100000
vt 0.200000 0.200000
vt 0.200000 0.300000
vt 0.200000 0.400000
vt 0.200000 0.500000
vt 0.200000 0.600000
vt 0.200000 0.700000
vt 0.200000 0.800000
vt 0.100000 0.000000
vt 0.100000 0.100000
vt 0.100000 0.200000
vt 0.100000 0.300000
vt 0.100000 0.400000
vt 0.100000 0.500000
vt 0.100000 0.600000
vt 0.100000 0.700000
vt 0.100000 0.800000
vt 0.000000 0.000000
vt 0.000000 0.100000
vt 0.000000 0.200000
vt 0.000000 0.300000
vt 0.000000 0.400000
vt 0.000000 0.500000
vt 0.000000 0.600000
vt 0.000000 0.700000
vt 0.000000 0.800000
vt 1.000000 0.000000
vt 1.000000 0.100000
vt 1.000000 0.200000
vt 1.000000 0.300000
vt 1.000000 0.400000
vt 1.000000 0.500000
vt 1.000000 0.600000
vt 1.000000 0.700000
vt 1.000000 0.800000
vn -0.2339 0.9302 0.2828
vn 0.3092 0.9092 0.2788
vn 0.1876 0.9740 0.1273
vn 0.3475 0.9322 0.1016
vn 0.4631 0.8557 0.2310
vn 0.2676 0.9433 0.1963
vn -0.2354 0.9719 0.0054
vn -0.2287 0.9721 0.0522
vn 0.1727 0.9635 0.2045
vn 0.1009 0.9581 0.2679
vn -0.4022 0.7570 -0.5150
vn -0.4437 0.7612 -0.4730
vn -0.4809 0.7895 -0.3814
vn -0.5036 0.8241 -0.2594
vn -0.5052 0.8509 -0.1444
vn -0.4351 0.9001 0.0235
vn -0.2484 0.9308 0.2682
vn -0.0463 0.9497 0.3097
vn 0.0839 0.9532 0.2905
vn -0.3481 0.7628 -0.5450
vn -0.3722 0.7863 -0.4932
vn -0.3923 0.8300 -0.3965
vn -0.4032 0.8738 -0.2718
vn -0.3975 0.9054 -0.1490
vn -0.3279 0.9356 0.1311
vn -0.1607 0.8845 0.4379
vn 0.0092 0.8833 0.4687
vn 0.1385 0.9152 0.3785
vn -0.2751 0.7885 -0.5501
vn -0.2585 0.8409 -0.4754
vn -0.2306 0.8930 -0.3864
vn -0.2189 0.9332 -0.2851
vn -0.2206 0.9611 -0.1663
vn -0.2127 0.9619 0.1720
vn -0.1715 0.8323 0.5271
vn -0.1554 0.8236 0.5454
vn -0.1784 0.8992 0.3995
vn -0.1429 0.8549 -0.4987
vn -0.0582 0.9073 -0.4165
vn 0.0008 0.9380 -0.3466
vn 0.0307 0.9625 -0.2695
vn 0.0671 0.9898 -0.1255
vn 0.0670 0.9921 0.1064
vn -0.0583 0.8778 0.4755
vn -0.1582 0.8394 0.5200
vn -0.2071 0.9100 0.3591
vn 0.0034 0.9234 -0.3839
vn 0.1452 0.9388 -0.3124
vn 0.2439 0.9305 -0.2732
vn 0.2804 0.9323 -0.2282
vn 0.3108 0.9491 -0.0510
vn 0.3475 0.9296 0.1232
vn 0.3058 0.8918 0.3335
vn 0.2337 0.8647 0.4445
vn 0.2282 0.8952 0.3828
vn 0.0617 0.9727 -0.2239
vn 0.2263 0.9633 -0.1443
vn 0.3485 0.9221 -0.1684
vn 0.3755 0.8993 -0.2243
vn 0.3831 0.9235 -0.0179
vn 0.4251 0.8852 0.1892
vn 0.4563 0.8314 0.3172
vn 0.4561 0.7940 0.4019
vn 0.4669 0.8070 0.3616
vn 0.0634 0.9939 -0.0898
vn 0.1494 0.9882 0.0338
vn 0.2292 0.9717 -0.0577
vn 0.2880 0.9274 -0.2385
vn 0.3040 0.9522 -0.0289
vn 0.3256 0.9128 0.2467
vn 0.3671 0.8553 0.3658
vn 0.3746 0.8256 0.4219
vn 0.3567 0.8731 0.3323
vn 0.0529 0.9966 -0.0636
vn -0.0163 0.9943 0.1057
vn -0.0473 0.9988 0.0126
vn 0.0752 0.9772 -0.1984
vn 0.1574 0.9861 -0.0536
vn 0.1875 0.9441 0.2711
vn 0.2375 0.8846 0.4015
vn 0.2281 0.8775 0.4220
vn 0.1658 0.9294 0.3297
vn 0.1792 0.9732 -0.1442
vn 0.0787 0.9968 0.0111
vn 0.0159 0.9999 0.0067
vn 0.1217 0.9896 -0.0761
vn 0.2690 0.9631 0.0074
vn 0.3364 0.9063 0.2559
vn 0.3445 0.8640 0.3673
vn 0.2957 0.8735 0.3868
vn 0.2654 0.8974 0.3524
vn -0.4303 0.7755 -0.4621
vn -0.4923 0.7549 -0.4333
vn -0.5415 0.7637 -0.3516
vn -0.5691 0.7853 -0.2437
vn -0.5724 0.8077 -0.1410
vn -0.5522 0.8324 -0.0468
vn -0.4565 0.8846 0.0956
vn -0.3215 0.9341 0.1550
vn -0.2412 0.9474 0.2104
usemtl None
s 1
f 1/1/1 2/2/1 3/3/1 4/4/1
f 5/5/2 6/6/2 7/7/2 8/8/2
f 6/6/3 9/9/3 10/10/3 7/7/3
f 9/9/4 11/11/4 12/12/4 10/10/4
f 11/11/5 13/13/5 14/14/5 12/12/5
f 13/13/6 15/15/6 16/16/6 14/14/6
f 15/15/7 17/17/7 18/18/7 16/16/7
f 17/17/8 19/19/8 20/20/8 18/18/8
f 19/19/9 21/21/9 22/22/9 20/20/9
f 21/21/10 1/1/10 4/4/10 22/22/10
f 23/23/11 24/24/11 25/25/11 26/26/11
f 26/26/12 25/25/12 27/27/12 28/28/12
f 28/28/13 27/27/13 29/29/13 30/30/13
f 30/30/14 29/29/14 31/31/14 32/32/14
f 32/32/15 31/31/15 33/33/15 34/34/15
f 34/34/16 33/33/16 35/35/16 36/36/16
f 36/36/17 35/35/17 37/37/17 38/38/17
f 38/38/18 37/37/18 39/39/18 40/40/18
f 40/40/19 39/39/19 1/1/19 21/21/19
f 41/41/20 23/23/20 26/26/20 42/42/20
f 42/42/21 26/26/21 28/28/21 43/43/21
f 43/43/22 28/28/22 30/30/22 44/44/22
f 44/44/23 30/30/23 32/32/23 45/45/23
f 45/45/24 32/32/24 34/34/24 46/46/24
f 46/46/25 34/34/25 36/36/25 47/47/25
f 47/47/26 36/36/26 38/38/26 48/48/26
f 48/48/27 38/38/27 40/40/27 49/49/27
f 49/49/28 40/40/28 21/21/28 19/19/28
f 50/50/29 41/41/29 42/42/29 51/51/29
f 51/51/30 42/42/30 43/43/30 52/52/30
f 52/52/31 43/43/31 44/44/31 53/53/31
f 53/53/32 44/44/32 45/45/32 54/54/32
f 54/54/33 45/45/33 46/46/33 55/55/33
f 55/55/34 46/46/34 47/47/34 56/56/34
f 56/56/35 47/47/35 48/48/35 57/57/35
f 57/57/36 48/48/36 49/49/36 58/58/36
f 58/58/37 49/49/37 19/19/37 17/17/37
f 59/59/38 50/50/38 51/51/38 60/60/38
f 60/60/39 51/51/39 52/52/39 61/61/39
f 61/61/40 52/52/40 53/53/40 62/62/40
f 62/62/41 53/53/41 54/54/41 63/63/41
f 63/63/42 54/54/42 55/55/42 64/64/42
f 64/64/43 55/55/43 56/56/43 65/65/43
f 65/65/44 56/56/44 57/57/44 66/66/44
f 66/66/45 57/57/45 58/58/45 67/67/45
f 67/67/46 58/58/46 17/17/46 15/15/46
f 68/68/47 59/59/47 60/60/47 69/69/47
f 69/69/48 60/60/48 61/61/48 70/70/48
f 70/70/49 61/61/49 62/62/49 71/71/49
f 71/71/50 62/62/50 63/63/50 72/72/50
f 72/72/51 63/63/51 64/64/51 73/73/51
f 73/73/52 64/64/52 65/65/52 74/74/52
f 74/74/53 65/65/53 66/66/53 75/75/53
f 75/75/54 66/66/54 67/67/54 76/76/54
f 76/76/55 67/67/55 15/15/55 13/13/55
f 77/77/56 68/68/56 69/69/56 78/78/56
f 78/78/57 69/69/57 70/70/57 79/79/57
f 79/79/58 70/70/58 71/71/58 80/80/58
f 80/80/59 71/71/59 72/72/59 81/81/59
f 81/81/60 72/72/60 73/73/60 82/82/60
f 82/82/61 73/73/61 74/74/61 83/83/61
f 83/83/62 74/74/62 75/75/62 84/84/62
f 84/84/63 75/75/63 76/76/63 85/85/63
f 85/85/64 76/76/64 13/13/64 11/11/64
f 86/86/65 77/77/65 78/78/65 87/87/65
f 87/87/66 78/78/66 79/79/66 88/88/66
f 88/88/67 79/79/67 80/80/67 89/89/67
f 89/89/68 80/80/68 81/81/68 90/90/68
f 90/90/69 81/81/69 82/82/69 91/91/69
f 91/91/70 82/82/70 83/83/70 92/92/70
f 92/92/71 83/83/71 84/84/71 93/93/71
f 93/93/72 84/84/72 85/85/72 94/94/72
f 94/94/73 85/85/73 11/11/73 9/9/73
f 95/95/74 86/86/74 87/87/74 96/96/74
f 96/96/75 87/87/75 88/88/75 97/97/75
f 97/97/76 88/88/76 89/89/76 98/98/76
f 98/98/77 89/89/77 90/90/77 99/99/77
f 99/99/78 90/90/78 91/91/78 100/100/78
f 100/100/79 91/91/79 92/92/79 101/101/79
f 101/101/80 92/92/80 93/93/80 102/102/80
f 102/102/81 93/93/81 94/94/81 103/103/81
f 103/103/82 94/94/82 9/9/82 6/6/82
f 104/104/83 95/95/83 96/96/83 105/105/83
f 105/105/84 96/96/84 97/97/84 106/106/84
f 106/106/85 97/97/85 98/98/85 107/107/85
f 107/107/86 98/98/86 99/99/86 108/108/86
f 108/108/87 99/99/87 100/100/87 109/109/87
f 109/109/88 100/100/88 101/101/88 110/110/88
f 110/110/89 101/101/89 102/102/89 111/111/89
f 111/111/90 102/102/90 103/103/90 112/112/90
f 112/112/91 103/103/91 6/6/91 5/5/91
f 24/24/92 113/113/92 114/114/92 25/25/92
f 25/25/93 114/114/93 115/115/93 27/27/93
f 27/27/94 115/115/94 116/116/94 29/29/94
f 29/29/95 116/116/95 117/117/95 31/31/95
f 31/31/96 117/117/96 118/118/96 33/33/96
f 33/33/97 118/118/97 119/119/97 35/35/97
f 35/35/98 119/119/98 120/120/98 37/37/98
f 37/37/99 120/120/99 121/121/99 39/39/99
f 39/39/100 121/121/100 2/2/100 1/1/100
