# Blender v2.82 (sub 7) OBJ File: 'paperplane.blend'
# www.blender.org
mtllib paperplane.mtl
o Plane
v 0.347812 0.000000 -1.000000
v 0.243075 0.000000 0.844751
v 0.106347 0.001219 0.919725
v 1.000000 0.000000 -1.000000
v 0.236179 0.000000 -0.044438
v 0.623524 0.000000 -0.082465
v 0.243075 0.021001 0.844751
v 0.623524 0.021001 -0.082465
v 0.028554 0.031110 1.066753
v 0.207342 0.016930 -0.074366
v 0.007360 0.008289 1.064875
v 0.020475 -0.028075 -0.039859
v -0.347812 0.000000 -1.000000
v -0.243075 0.000000 0.844751
v -0.106347 0.001219 0.919725
v -1.000000 0.000000 -1.000000
v 0.000000 -0.131713 1.107812
v 0.000000 -0.106325 -1.000000
v -0.236179 0.000000 -0.044438
v -0.623524 0.000000 -0.082465
v 0.000000 -0.090105 0.048375
v -0.243075 0.021001 0.844751
v -0.623524 0.021001 -0.082465
v -0.028554 0.031110 1.066753
v -0.207342 0.016930 -0.074366
v -0.007360 0.008289 1.064875
v -0.020475 -0.028075 -0.039859
vt 0.753767 0.502624
vt 1.000000 0.502624
vt 1.000000 1.000000
vt 0.753767 1.000000
vt 0.500000 0.502624
vt 0.500000 1.000000
vt 0.500000 0.000000
vt 0.753767 0.000000
vt 1.000000 0.000000
vt 1.000000 0.000000
vt 1.000000 0.502624
vt 1.000000 0.000000
vt 1.000000 0.502624
vt 1.000000 0.000000
vt 1.000000 0.502624
vt 0.753767 0.502624
vt 0.753767 1.000000
vt 1.000000 1.000000
vt 1.000000 0.502624
vt 0.753767 0.000000
vt 1.000000 0.000000
vt 1.000000 0.502624
vt 1.000000 0.000000
vt 1.000000 0.502624
vt 1.000000 0.000000
vt 1.000000 0.502624
vt 1.000000 0.000000
vn 0.0000 1.0000 0.0000
vn -0.3224 0.9463 -0.0256
vn -0.5565 0.8306 -0.0191
vn 0.0023 1.0000 -0.0000
vn -0.9252 0.0000 -0.3796
vn -0.0078 -1.0000 0.0047
vn 0.3164 -0.9474 0.0484
vn 0.3224 0.9463 -0.0256
vn 0.5565 0.8306 -0.0191
vn -0.0023 1.0000 -0.0000
vn 0.9252 0.0000 -0.3796
vn 0.0078 -1.0000 0.0047
vn -0.3164 -0.9474 0.0484
usemtl None
s off
f 5/1/1 6/2/1 4/3/1 1/4/1
f 21/5/2 5/1/2 1/4/2 18/6/2
f 17/7/3 3/8/3 5/1/3 21/5/3
f 3/8/4 2/9/4 6/2/4 5/1/4
f 6/2/5 2/9/5 7/10/5 8/11/5
f 8/11/6 7/10/6 9/12/6 10/13/6
f 10/13/7 9/12/7 11/14/7 12/15/7
f 19/16/1 13/17/1 16/18/1 20/19/1
f 21/5/8 18/6/8 13/17/8 19/16/8
f 17/7/9 21/5/9 19/16/9 15/20/9
f 15/20/10 19/16/10 20/19/10 14/21/10
f 20/19/11 23/22/11 22/23/11 14/21/11
f 23/22/12 25/24/12 24/25/12 22/23/12
f 25/24/13 27/26/13 26/27/13 24/25/13
