# Blender v2.82 (sub 7) OBJ File: ''
# www.blender.org
mtllib plana4.mtl
o Plane_Plane.001
v 2.950603 -3.994844 -3.196781
v 3.900155 -1.822194 -3.120259
v 3.900263 -1.370446 -3.900263
v 3.013113 -3.082197 -3.948612
v -3.939810 0.026113 -3.157244
v -3.385494 0.151918 -3.368632
v -3.223621 0.050255 -3.997101
v -3.900738 0.000315 -3.900708
v -2.867276 -0.066436 -3.613824
v -2.605442 -0.289091 -4.148685
v -2.205363 -1.032933 -3.724454
v -1.899866 -1.297347 -4.218428
v -1.307296 -3.162985 -3.613888
v -1.045336 -3.071125 -4.148685
v -0.469765 -5.185132 -3.477859
v -0.219851 -4.718695 -4.054200
v 0.215910 -6.297316 -3.418388
v 0.423254 -5.421947 -4.064866
v 0.922460 -6.606121 -3.408078
v 1.085642 -5.393132 -4.114461
v 1.865694 -6.079751 -3.334409
v 1.990626 -4.767902 -4.058061
v 2.545980 -0.305534 3.970833
v 3.303746 -0.272450 3.963191
v 3.432642 -0.463790 3.227333
v 2.684304 -0.510870 3.238207
v 3.535559 -0.616565 2.482567
v 2.796058 -0.676761 2.496471
v 3.576110 -0.676761 1.716418
v 2.842024 -0.744995 1.732179
v 3.535559 -0.616565 0.922462
v 2.796058 -0.724316 0.936366
v 3.432642 -0.821748 0.107122
v 2.684304 -1.459883 0.117996
v 3.296019 -1.809703 -0.720596
v 2.428746 -3.242471 -0.761308
v 3.077062 -3.271870 -1.586529
v 2.042244 -5.559168 -1.700205
v 2.952353 -4.155233 -2.416128
v 1.865694 -6.513914 -2.554357
v 1.743640 -0.272450 3.963191
v 1.872537 -0.463790 3.227333
v 1.975454 -0.616565 2.482567
v 2.015911 -0.676655 1.716431
v 1.975454 -0.916266 0.922462
v 1.872412 -2.118919 0.107068
v 1.549136 -4.400778 -0.802231
v 1.105483 -6.643262 -1.768734
v 0.916870 -7.229914 -2.633261
v 0.905753 -0.186597 3.943361
v 0.980432 -0.307863 3.202540
v 0.974988 -0.330096 2.460306
v 0.963352 -0.330669 1.695889
v 0.977875 -0.994166 0.901190
v 0.980424 -2.513660 0.081737
v 0.705751 -4.755524 -0.854825
v 0.289140 -6.468882 -1.851266
v 0.147952 -6.748017 -2.701974
v 0.027962 -0.051919 3.923476
v -0.080675 0.046393 3.188589
v -0.232421 0.200973 2.449032
v -0.299878 0.268965 1.685521
v -0.232532 -0.460090 0.885934
v -0.231426 -2.248510 -0.060661
v -0.289580 -4.255351 -1.029951
v -0.486366 -5.352549 -1.963616
v -0.567190 -5.482590 -2.789039
v -0.876870 0.102996 3.920378
v -1.123988 0.366510 3.190850
v -1.378988 0.641509 2.458903
v -1.489456 0.760837 1.699432
v -1.403512 0.504981 0.875394
v -1.405362 -0.811931 -0.187776
v -1.425610 -2.408800 -1.272112
v -1.425282 -3.250017 -2.164322
v -1.425454 -3.316882 -2.944483
v -1.696448 0.146676 3.926453
v -1.986749 0.458982 3.202163
v -2.275230 0.769331 2.477523
v -2.406028 0.910042 1.722595
v -2.282601 0.774198 0.910516
v -2.246810 0.294161 -0.161579
v -2.324659 -0.578770 -1.342144
v -2.350342 -1.021909 -2.300016
v -2.350257 -0.993523 -3.080085
v -2.439814 0.107209 3.919405
v -2.692644 0.379204 3.187918
v -2.946007 0.651771 2.456533
v -3.055283 0.769331 1.697471
v -2.946007 0.651771 0.896428
v -2.855799 0.486877 -0.085077
v -2.930936 0.209928 -1.220816
v -2.985444 0.021416 -2.164375
v -2.985415 0.001753 -2.944401
v -3.145682 0.027402 3.905156
v -3.299739 0.193136 3.154696
v -3.472697 0.379205 2.407866
v -3.546854 0.458983 1.642058
v -3.472697 0.379205 0.847760
v -3.360574 0.233304 -0.022483
v -3.401093 0.196044 -1.014336
v -3.460006 0.217626 -1.878303
v -3.459971 0.201884 -2.658323
v -3.900263 -0.000001 3.900263
v -3.925735 0.027402 3.125103
v -3.999919 0.107210 2.359300
v -4.036606 0.146677 1.586295
v -3.999919 0.107210 0.799195
v -3.925815 0.027456 0.004818
v -3.939827 0.026123 -0.817102
v -3.967723 0.044542 -1.623277
v -3.967702 0.044528 -2.403310
v 4.025963 -0.186597 3.943361
v 4.130008 -0.341045 3.198982
v 4.212695 -0.463789 2.447280
v 4.244410 -0.510869 1.678102
v 4.212695 -0.463789 0.887175
v 4.130008 -0.371908 0.078772
v 4.025963 -0.771899 -0.736954
v 3.936695 -1.452230 -1.547614
v 3.900155 -1.876646 -2.340207
vt 0.900000 0.900000
vt 1.000000 0.900000
vt 1.000000 1.000000
vt 0.900000 1.000000
vt 0.000000 0.900000
vt 0.100000 0.900000
vt 0.100000 1.000000
vt 0.000000 1.000000
vt 0.200000 0.900000
vt 0.200000 1.000000
vt 0.300000 0.900000
vt 0.300000 1.000000
vt 0.400000 0.900000
vt 0.400000 1.000000
vt 0.500000 0.900000
vt 0.500000 1.000000
vt 0.600000 0.900000
vt 0.600000 1.000000
vt 0.700000 0.900000
vt 0.700000 1.000000
vt 0.800000 0.900000
vt 0.800000 1.000000
vt 0.800000 0.000000
vt 0.900000 0.000000
vt 0.900000 0.100000
vt 0.800000 0.100000
vt 0.900000 0.200000
vt 0.800000 0.200000
vt 0.900000 0.300000
vt 0.800000 0.300000
vt 0.900000 0.400000
vt 0.800000 0.400000
vt 0.900000 0.500000
vt 0.800000 0.500000
vt 0.900000 0.600000
vt 0.800000 0.600000
vt 0.900000 0.700000
vt 0.800000 0.700000
vt 0.900000 0.800000
vt 0.800000 0.800000
vt 0.700000 0.000000
vt 0.700000 0.100000
vt 0.700000 0.200000
vt 0.700000 0.300000
vt 0.700000 0.400000
vt 0.700000 0.500000
vt 0.700000 0.600000
vt 0.700000 0.700000
vt 0.700000 0.800000
vt 0.600000 0.000000
vt 0.600000 0.100000
vt 0.600000 0.200000
vt 0.600000 0.300000
vt 0.600000 0.400000
vt 0.600000 0.500000
vt 0.600000 0.600000
vt 0.600000 0.700000
vt 0.600000 0.800000
vt 0.500000 0.000000
vt 0.500000 0.100000
vt 0.500000 0.200000
vt 0.500000 0.300000
vt 0.500000 0.400000
vt 0.500000 0.500000
vt 0.500000 0.600000
vt 0.500000 0.700000
vt 0.500000 0.800000
vt 0.400000 0.000000
vt 0.400000 0.100000
vt 0.400000 0.200000
vt 0.400000 0.300000
vt 0.400000 0.400000
vt 0.400000 0.500000
vt 0.400000 0.600000
vt 0.400000 0.700000
vt 0.400000 0.800000
vt 0.300000 0.000000
vt 0.300000 0.100000
vt 0.300000 0.200000
vt 0.300000 0.300000
vt 0.300000 0.400000
vt 0.300000 0.500000
vt 0.300000 0.600000
vt 0.300000 0.700000
vt 0.300000 0.800000
vt 0.200000 0.000000
vt 0.200000 0.100000
vt 0.200000 0.200000
vt 0.200000 0.300000
vt 0.200000 0.400000
vt 0.200000 0.500000
vt 0.200000 0.600000
vt 0.200000 0.700000
vt 0.200000 0.800000
vt 0.100000 0.000000
vt 0.100000 0.100000
vt 0.100000 0.200000
vt 0.100000 0.300000
vt 0.100000 0.400000
vt 0.100000 0.500000
vt 0.100000 0.600000
vt 0.100000 0.700000
vt 0.100000 0.800000
vt 0.000000 0.000000
vt 0.000000 0.100000
vt 0.000000 0.200000
vt 0.000000 0.300000
vt 0.000000 0.400000
vt 0.000000 0.500000
vt 0.000000 0.600000
vt 0.000000 0.700000
vt 0.000000 0.800000
vt 1.000000 0.000000
vt 1.000000 0.100000
vt 1.000000 0.200000
vt 1.000000 0.300000
vt 1.000000 0.400000
vt 1.000000 0.500000
vt 1.000000 0.600000
vt 1.000000 0.700000
vt 1.000000 0.800000
vn -0.8609 0.3969 0.3183
vn -0.1686 0.9789 -0.1156
vn 0.4087 0.9067 -0.1039
vn 0.8151 0.5471 0.1905
vn 0.8319 0.3916 0.3932
vn 0.7553 0.3760 0.5368
vn 0.5721 0.4374 0.6939
vn 0.1310 0.5225 0.8425
vn -0.3614 0.4904 0.7930
vn -0.7691 0.3970 0.5009
vn -0.0545 0.9614 -0.2696
vn -0.0738 0.9729 -0.2192
vn -0.0882 0.9922 -0.0882
vn -0.1173 0.9915 0.0568
vn -0.4137 0.8114 -0.4129
vn -0.6020 0.4789 -0.6389
vn -0.7171 0.3906 -0.5773
vn -0.8635 0.4102 -0.2933
vn -0.8904 0.4250 0.1629
vn 0.0509 0.9664 -0.2518
vn 0.0673 0.9775 -0.1998
vn 0.0790 0.9938 -0.0789
vn -0.0718 0.9886 -0.1322
vn -0.3184 0.6313 -0.7071
vn -0.4210 0.4149 -0.8066
vn -0.4617 0.4123 -0.7854
vn -0.5922 0.6584 -0.4646
vn -0.5074 0.7133 0.4835
vn 0.1407 0.9723 -0.1864
vn 0.2288 0.9684 -0.0990
vn 0.2949 0.9550 -0.0323
vn 0.1227 0.8619 -0.4920
vn -0.1078 0.5148 -0.8505
vn -0.1271 0.3891 -0.9124
vn 0.0253 0.4399 -0.8977
vn 0.3750 0.7966 -0.4742
vn 0.3696 0.7451 0.5551
vn 0.2448 0.9694 -0.0207
vn 0.3628 0.9308 0.0447
vn 0.4159 0.9092 0.0186
vn 0.3354 0.7180 -0.6099
vn 0.2082 0.4608 -0.8627
vn 0.2590 0.3783 -0.8887
vn 0.5006 0.4131 -0.7607
vn 0.8330 0.5019 -0.2329
vn 0.7958 0.4907 0.3549
vn 0.2330 0.9558 0.1796
vn 0.3236 0.9286 0.1817
vn 0.3704 0.9262 0.0706
vn 0.4755 0.7713 -0.4230
vn 0.5181 0.4647 -0.7181
vn 0.6361 0.3715 -0.6762
vn 0.7996 0.3668 -0.4755
vn 0.9204 0.3798 -0.0930
vn 0.8868 0.3776 0.2663
vn 0.0793 0.9365 0.3416
vn 0.1228 0.9359 0.3303
vn 0.1527 0.9778 0.1436
vn 0.2161 0.9554 -0.2011
vn 0.5098 0.6622 -0.5492
vn 0.7453 0.4343 -0.5058
vn 0.8815 0.3822 -0.2774
vn 0.9266 0.3760 -0.0093
vn 0.9000 0.3802 0.2133
vn -0.0811 0.9142 0.3972
vn -0.1396 0.9003 0.4124
vn -0.1949 0.9613 0.1949
vn -0.1882 0.9657 -0.1789
vn 0.0381 0.9540 -0.2973
vn 0.5340 0.7427 -0.4040
vn 0.7924 0.5681 -0.2221
vn 0.8489 0.5285 0.0030
vn 0.8349 0.5365 0.1232
vn -0.1989 0.9237 0.3274
vn -0.3711 0.8512 0.3711
vn -0.5026 0.8476 0.1702
vn -0.4778 0.8635 -0.1617
vn -0.4477 0.8726 -0.1954
vn -0.2942 0.9477 -0.1240
vn 0.1382 0.9854 -0.0997
vn 0.3744 0.9270 -0.0210
vn 0.3761 0.9262 -0.0268
vn -0.1406 0.9800 0.1406
vn -0.3592 0.9074 0.2182
vn -0.5034 0.8579 0.1027
vn -0.4880 0.8671 -0.0996
vn -0.3924 0.9046 -0.1665
vn -0.3241 0.9460 -0.0104
vn -0.2963 0.9543 0.0383
vn -0.3138 0.9494 -0.0096
vn -0.2834 0.9568 -0.0645
vn -0.1491 0.9574 -0.2471
vn -0.2015 0.9586 -0.2015
vn -0.2338 0.9691 -0.0787
vn -0.2259 0.9712 0.0760
vn -0.4022 0.9154 -0.0179
vn -0.6590 0.6194 -0.4266
vn -0.7912 0.4434 -0.4212
vn -0.8875 0.3979 -0.2326
vn -0.9192 0.3899 0.0547
usemtl None
s 1
f 1/1/1 2/2/1 3/3/1 4/4/1
f 5/5/2 6/6/2 7/7/2 8/8/2
f 6/6/3 9/9/3 10/10/3 7/7/3
f 9/9/4 11/11/4 12/12/4 10/10/4
f 11/11/5 13/13/5 14/14/5 12/12/5
f 13/13/6 15/15/6 16/16/6 14/14/6
f 15/15/7 17/17/7 18/18/7 16/16/7
f 17/17/8 19/19/8 20/20/8 18/18/8
f 19/19/9 21/21/9 22/22/9 20/20/9
f 21/21/10 1/1/10 4/4/10 22/22/10
f 23/23/11 24/24/11 25/25/11 26/26/11
f 26/26/12 25/25/12 27/27/12 28/28/12
f 28/28/13 27/27/13 29/29/13 30/30/13
f 30/30/14 29/29/14 31/31/14 32/32/14
f 32/32/15 31/31/15 33/33/15 34/34/15
f 34/34/16 33/33/16 35/35/16 36/36/16
f 36/36/17 35/35/17 37/37/17 38/38/17
f 38/38/18 37/37/18 39/39/18 40/40/18
f 40/40/19 39/39/19 1/1/19 21/21/19
f 41/41/20 23/23/20 26/26/20 42/42/20
f 42/42/21 26/26/21 28/28/21 43/43/21
f 43/43/22 28/28/22 30/30/22 44/44/22
f 44/44/23 30/30/23 32/32/23 45/45/23
f 45/45/24 32/32/24 34/34/24 46/46/24
f 46/46/25 34/34/25 36/36/25 47/47/25
f 47/47/26 36/36/26 38/38/26 48/48/26
f 48/48/27 38/38/27 40/40/27 49/49/27
f 49/49/28 40/40/28 21/21/28 19/19/28
f 50/50/29 41/41/29 42/42/29 51/51/29
f 51/51/30 42/42/30 43/43/30 52/52/30
f 52/52/31 43/43/31 44/44/31 53/53/31
f 53/53/32 44/44/32 45/45/32 54/54/32
f 54/54/33 45/45/33 46/46/33 55/55/33
f 55/55/34 46/46/34 47/47/34 56/56/34
f 56/56/35 47/47/35 48/48/35 57/57/35
f 57/57/36 48/48/36 49/49/36 58/58/36
f 58/58/37 49/49/37 19/19/37 17/17/37
f 59/59/38 50/50/38 51/51/38 60/60/38
f 60/60/39 51/51/39 52/52/39 61/61/39
f 61/61/40 52/52/40 53/53/40 62/62/40
f 62/62/41 53/53/41 54/54/41 63/63/41
f 63/63/42 54/54/42 55/55/42 64/64/42
f 64/64/43 55/55/43 56/56/43 65/65/43
f 65/65/44 56/56/44 57/57/44 66/66/44
f 66/66/45 57/57/45 58/58/45 67/67/45
f 67/67/46 58/58/46 17/17/46 15/15/46
f 68/68/47 59/59/47 60/60/47 69/69/47
f 69/69/48 60/60/48 61/61/48 70/70/48
f 70/70/49 61/61/49 62/62/49 71/71/49
f 71/71/50 62/62/50 63/63/50 72/72/50
f 72/72/51 63/63/51 64/64/51 73/73/51
f 73/73/52 64/64/52 65/65/52 74/74/52
f 74/74/53 65/65/53 66/66/53 75/75/53
f 75/75/54 66/66/54 67/67/54 76/76/54
f 76/76/55 67/67/55 15/15/55 13/13/55
f 77/77/56 68/68/56 69/69/56 78/78/56
f 78/78/57 69/69/57 70/70/57 79/79/57
f 79/79/58 70/70/58 71/71/58 80/80/58
f 80/80/59 71/71/59 72/72/59 81/81/59
f 81/81/60 72/72/60 73/73/60 82/82/60
f 82/82/61 73/73/61 74/74/61 83/83/61
f 83/83/62 74/74/62 75/75/62 84/84/62
f 84/84/63 75/75/63 76/76/63 85/85/63
f 85/85/64 76/76/64 13/13/64 11/11/64
f 86/86/65 77/77/65 78/78/65 87/87/65
f 87/87/66 78/78/66 79/79/66 88/88/66
f 88/88/67 79/79/67 80/80/67 89/89/67
f 89/89/68 80/80/68 81/81/68 90/90/68
f 90/90/69 81/81/69 82/82/69 91/91/69
f 91/91/70 82/82/70 83/83/70 92/92/70
f 92/92/71 83/83/71 84/84/71 93/93/71
f 93/93/72 84/84/72 85/85/72 94/94/72
f 94/94/73 85/85/73 11/11/73 9/9/73
f 95/95/74 86/86/74 87/87/74 96/96/74
f 96/96/75 87/87/75 88/88/75 97/97/75
f 97/97/76 88/88/76 89/89/76 98/98/76
f 98/98/77 89/89/77 90/90/77 99/99/77
f 99/99/78 90/90/78 91/91/78 100/100/78
f 100/100/79 91/91/79 92/92/79 101/101/79
f 101/101/80 92/92/80 93/93/80 102/102/80
f 102/102/81 93/93/81 94/94/81 103/103/81
f 103/103/82 94/94/82 9/9/82 6/6/82
f 104/104/83 95/95/83 96/96/83 105/105/83
f 105/105/84 96/96/84 97/97/84 106/106/84
f 106/106/85 97/97/85 98/98/85 107/107/85
f 107/107/86 98/98/86 99/99/86 108/108/86
f 108/108/87 99/99/87 100/100/87 109/109/87
f 109/109/88 100/100/88 101/101/88 110/110/88
f 110/110/89 101/101/89 102/102/89 111/111/89
f 111/111/90 102/102/90 103/103/90 112/112/90
f 112/112/91 103/103/91 6/6/91 5/5/91
f 24/24/92 113/113/92 114/114/92 25/25/92
f 25/25/93 114/114/93 115/115/93 27/27/93
f 27/27/94 115/115/94 116/116/94 29/29/94
f 29/29/95 116/116/95 117/117/95 31/31/95
f 31/31/96 117/117/96 118/118/96 33/33/96
f 33/33/97 118/118/97 119/119/97 35/35/97
f 35/35/98 119/119/98 120/120/98 37/37/98
f 37/37/99 120/120/99 121/121/99 39/39/99
f 39/39/100 121/121/100 2/2/100 1/1/100
